# xmcd
#
# Track frame offsets: 
#        150
#        10420
#        27300
#        48327
#        69524
#        84885
#
# Disc length: 1357 seconds
#
# Revision: 0
# Processed by: cddbd v1.5.2PL0 Copyright (c) Steve Scherf et al.
# Submitted via: ExactAudioCopy v0.95b2
#
DISCID=40054b06
DTITLE=Cody - Cody EP
DYEAR=1900
DGENRE=Country
TTITLE0=make you return
TTITLE1=thta's what she sees
TTITLE2=comfort and rage
TTITLE3=shame
TTITLE4=cryin' you
TTITLE5=just for you
EXTD=
EXTT0=
EXTT1=
EXTT2=
EXTT3=
EXTT4=
EXTT5=
PLAYORDER=
